<svg width="14" height="9" viewBox="0 0 14 9" fill="none" xmlns="http://www.w3.org/2000/svg">
<path d="M13.1253 7.96875V4.21875C13.1253 4.09443 13.0759 3.9752 12.988 3.88729C12.9001 3.79939 12.7808 3.75 12.6565 3.75C12.5322 3.75 12.413 3.79939 12.3251 3.88729C12.2371 3.9752 12.1878 4.09443 12.1878 4.21875V6.8373L7.36315 2.01211C7.31962 1.96853 7.26792 1.93395 7.21101 1.91036C7.15411 1.88677 7.09311 1.87463 7.03151 1.87463C6.96991 1.87463 6.90891 1.88677 6.85201 1.91036C6.7951 1.93395 6.7434 1.96853 6.69987 2.01211L4.68776 4.0248L0.800651 0.137109C0.712695 0.0491526 0.5934 -0.000261068 0.469011 -0.000261068C0.344621 -0.000261068 0.225327 0.0491526 0.13737 0.137109C0.0494135 0.225066 0 0.344361 0 0.46875C0 0.593139 0.0494135 0.712434 0.13737 0.800391L4.35612 5.01914C4.39965 5.06272 4.45135 5.0973 4.50826 5.12089C4.56516 5.14448 4.62616 5.15662 4.68776 5.15662C4.74936 5.15662 4.81036 5.14448 4.86726 5.12089C4.92417 5.0973 4.97587 5.06272 5.0194 5.01914L7.03151 3.00645L11.5251 7.5H8.90651C8.78219 7.5 8.66296 7.54939 8.57505 7.63729C8.48715 7.7252 8.43776 7.84443 8.43776 7.96875C8.43776 8.09307 8.48715 8.2123 8.57505 8.30021C8.66296 8.38811 8.78219 8.4375 8.90651 8.4375H12.6565C12.7808 8.4375 12.9001 8.38811 12.988 8.30021C13.0759 8.2123 13.1253 8.09307 13.1253 7.96875Z" fill="#EA0000"/>
</svg>
