<svg width="20" height="20" viewBox="0 0 20 20" fill="none" xmlns="http://www.w3.org/2000/svg">
<path d="M11.6668 15.8334H17.5M17.5 4.16699H5.8332M14.1668 10.0002H2.5M8.3332 15.8334H2.5" stroke="#306CFE" stroke-linecap="round" stroke-linejoin="round"/>
<path d="M5.83325 4.16689C5.83325 3.72493 5.65768 3.30108 5.34517 2.98857C5.03266 2.67606 4.6088 2.50049 4.16684 2.50049C3.72489 2.50049 3.30103 2.67606 2.98852 2.98857C2.67601 3.30108 2.50044 3.72493 2.50044 4.16689C2.50044 4.60885 2.67601 5.0327 2.98852 5.34521C3.30103 5.65772 3.72489 5.83329 4.16684 5.83329C4.6088 5.83329 5.03266 5.65772 5.34517 5.34521C5.65768 5.0327 5.83325 4.60885 5.83325 4.16689ZM17.5 10.0001C17.5035 9.77905 17.4629 9.55955 17.3807 9.35435C17.2985 9.14914 17.1762 8.96235 17.0211 8.80483C16.866 8.64731 16.6812 8.52221 16.4773 8.43683C16.2734 8.35144 16.0545 8.30747 15.8334 8.30747C15.6124 8.30747 15.3935 8.35144 15.1896 8.43683C14.9857 8.52221 14.8008 8.64731 14.6457 8.80483C14.4906 8.96235 14.3684 9.14914 14.2862 9.35435C14.204 9.55955 14.1634 9.77905 14.1668 10.0001C14.1736 10.4376 14.3522 10.855 14.664 11.162C14.9758 11.469 15.3959 11.6411 15.8334 11.6411C16.271 11.6411 16.6911 11.469 17.0029 11.162C17.3147 10.855 17.4933 10.4376 17.5 10.0001ZM11.6668 15.8333C11.6668 15.3912 11.4912 14.9673 11.1787 14.6547C10.8661 14.3421 10.4421 14.1665 10 14.1665C9.55798 14.1665 9.13402 14.3421 8.82144 14.6547C8.50885 14.9673 8.33324 15.3912 8.33324 15.8333C8.33324 16.2754 8.50885 16.6993 8.82144 17.0119C9.13402 17.3245 9.55798 17.5001 10 17.5001C10.4421 17.5001 10.8661 17.3245 11.1787 17.0119C11.4912 16.6993 11.6668 16.2754 11.6668 15.8333Z" stroke="#344054" stroke-linecap="round" stroke-linejoin="round"/>
</svg>
