<svg width="14" height="15" viewBox="0 0 14 15" fill="none" xmlns="http://www.w3.org/2000/svg">
<path d="M10.625 3.75V13.75C10.625 13.9158 10.5592 14.0747 10.4419 14.1919C10.3247 14.3092 10.1658 14.375 10 14.375C9.83424 14.375 9.67527 14.3092 9.55806 14.1919C9.44085 14.0747 9.375 13.9158 9.375 13.75V3.75C9.375 3.58424 9.44085 3.42527 9.55806 3.30806C9.67527 3.19085 9.83424 3.125 10 3.125C10.1658 3.125 10.3247 3.19085 10.4419 3.30806C10.5592 3.42527 10.625 3.58424 10.625 3.75ZM13.125 0C12.9592 0 12.8003 0.065848 12.6831 0.183058C12.5658 0.300268 12.5 0.45924 12.5 0.625V13.75C12.5 13.9158 12.5658 14.0747 12.6831 14.1919C12.8003 14.3092 12.9592 14.375 13.125 14.375C13.2908 14.375 13.4497 14.3092 13.5669 14.1919C13.6842 14.0747 13.75 13.9158 13.75 13.75V0.625C13.75 0.45924 13.6842 0.300268 13.5669 0.183058C13.4497 0.065848 13.2908 0 13.125 0ZM6.875 6.25C6.70924 6.25 6.55027 6.31585 6.43306 6.43306C6.31585 6.55027 6.25 6.70924 6.25 6.875V13.75C6.25 13.9158 6.31585 14.0747 6.43306 14.1919C6.55027 14.3092 6.70924 14.375 6.875 14.375C7.04076 14.375 7.19973 14.3092 7.31694 14.1919C7.43415 14.0747 7.5 13.9158 7.5 13.75V6.875C7.5 6.70924 7.43415 6.55027 7.31694 6.43306C7.19973 6.31585 7.04076 6.25 6.875 6.25ZM3.75 9.375C3.58424 9.375 3.42527 9.44085 3.30806 9.55806C3.19085 9.67527 3.125 9.83424 3.125 10V13.75C3.125 13.9158 3.19085 14.0747 3.30806 14.1919C3.42527 14.3092 3.58424 14.375 3.75 14.375C3.91576 14.375 4.07473 14.3092 4.19194 14.1919C4.30915 14.0747 4.375 13.9158 4.375 13.75V10C4.375 9.83424 4.30915 9.67527 4.19194 9.55806C4.07473 9.44085 3.91576 9.375 3.75 9.375ZM0.625 12.5C0.45924 12.5 0.300269 12.5658 0.183058 12.6831C0.0658481 12.8003 0 12.9592 0 13.125V13.75C0 13.9158 0.0658481 14.0747 0.183058 14.1919C0.300269 14.3092 0.45924 14.375 0.625 14.375C0.79076 14.375 0.949731 14.3092 1.06694 14.1919C1.18415 14.0747 1.25 13.9158 1.25 13.75V13.125C1.25 12.9592 1.18415 12.8003 1.06694 12.6831C0.949731 12.5658 0.79076 12.5 0.625 12.5Z" fill="#7B0046"/>
</svg>
