<svg width="18" height="13" viewBox="0 0 18 13" fill="none" xmlns="http://www.w3.org/2000/svg">
<path d="M3.125 6.875C3.125 7.04076 3.05915 7.19973 2.94194 7.31694C2.82473 7.43415 2.66576 7.5 2.5 7.5H0.625C0.45924 7.5 0.300268 7.43415 0.183058 7.31694C0.065848 7.19973 0 7.04076 0 6.875C0 6.70924 0.065848 6.55027 0.183058 6.43306C0.300268 6.31585 0.45924 6.25 0.625 6.25H1.25V1.25H0.625C0.45924 1.25 0.300268 1.18415 0.183058 1.06694C0.065848 0.949732 0 0.790761 0 0.625C0 0.45924 0.065848 0.300269 0.183058 0.183059C0.300268 0.0658485 0.45924 3.57629e-07 0.625 3.57629e-07H1.875C1.9808 -0.000112815 2.08491 0.0266359 2.17755 0.0777403C2.27019 0.128845 2.34835 0.202632 2.40469 0.292188L5 4.44609L7.59531 0.29375C7.65147 0.203904 7.72954 0.129809 7.8222 0.078424C7.91485 0.0270394 8.01905 5.30913e-05 8.125 3.57629e-07H9.375C9.54076 3.57629e-07 9.69973 0.0658485 9.81694 0.183059C9.93415 0.300269 10 0.45924 10 0.625C10 0.790761 9.93415 0.949732 9.81694 1.06694C9.69973 1.18415 9.54076 1.25 9.375 1.25H8.75V6.25H9.375C9.54076 6.25 9.69973 6.31585 9.81694 6.43306C9.93415 6.55027 10 6.70924 10 6.875C10 7.04076 9.93415 7.19973 9.81694 7.31694C9.69973 7.43415 9.54076 7.5 9.375 7.5H7.5C7.33424 7.5 7.17527 7.43415 7.05806 7.31694C6.94085 7.19973 6.875 7.04076 6.875 6.875C6.875 6.70924 6.94085 6.55027 7.05806 6.43306C7.17527 6.31585 7.33424 6.25 7.5 6.25V2.80391L5.52969 5.95625C5.47347 6.046 5.39538 6.12 5.30272 6.1713C5.21007 6.22259 5.1059 6.2495 5 6.2495C4.8941 6.2495 4.78993 6.22259 4.69728 6.1713C4.60462 6.12 4.52653 6.046 4.47031 5.95625L2.5 2.80391V6.25C2.66576 6.25 2.82473 6.31585 2.94194 6.43306C3.05915 6.55027 3.125 6.70924 3.125 6.875ZM11.875 5H16.875C17.0408 5 17.1997 4.93415 17.3169 4.81694C17.4342 4.69973 17.5 4.54076 17.5 4.375C17.5 4.20924 17.4342 4.05027 17.3169 3.93306C17.1997 3.81585 17.0408 3.75 16.875 3.75H11.875C11.7092 3.75 11.5503 3.81585 11.4331 3.93306C11.3158 4.05027 11.25 4.20924 11.25 4.375C11.25 4.54076 11.3158 4.69973 11.4331 4.81694C11.5503 4.93415 11.7092 5 11.875 5ZM16.875 6.25H11.875C11.7092 6.25 11.5503 6.31585 11.4331 6.43306C11.3158 6.55027 11.25 6.70924 11.25 6.875C11.25 7.04076 11.3158 7.19973 11.4331 7.31694C11.5503 7.43415 11.7092 7.5 11.875 7.5H16.875C17.0408 7.5 17.1997 7.43415 17.3169 7.31694C17.4342 7.19973 17.5 7.04076 17.5 6.875C17.5 6.70924 17.4342 6.55027 17.3169 6.43306C17.1997 6.31585 17.0408 6.25 16.875 6.25ZM16.875 8.75H5C4.83424 8.75 4.67527 8.81585 4.55806 8.93306C4.44085 9.05027 4.375 9.20924 4.375 9.375C4.375 9.54076 4.44085 9.69973 4.55806 9.81694C4.67527 9.93415 4.83424 10 5 10H16.875C17.0408 10 17.1997 9.93415 17.3169 9.81694C17.4342 9.69973 17.5 9.54076 17.5 9.375C17.5 9.20924 17.4342 9.05027 17.3169 8.93306C17.1997 8.81585 17.0408 8.75 16.875 8.75ZM16.875 11.25H5C4.83424 11.25 4.67527 11.3158 4.55806 11.4331C4.44085 11.5503 4.375 11.7092 4.375 11.875C4.375 12.0408 4.44085 12.1997 4.55806 12.3169C4.67527 12.4342 4.83424 12.5 5 12.5H16.875C17.0408 12.5 17.1997 12.4342 17.3169 12.3169C17.4342 12.1997 17.5 12.0408 17.5 11.875C17.5 11.7092 17.4342 11.5503 17.3169 11.4331C17.1997 11.3158 17.0408 11.25 16.875 11.25Z" fill="#7B0046"/>
</svg>
