<svg width="17" height="17" viewBox="0 0 17 17" fill="none" xmlns="http://www.w3.org/2000/svg">
<path d="M8.125 0C6.51803 0 4.94714 0.476523 3.611 1.36931C2.27485 2.2621 1.23344 3.53105 0.618482 5.0157C0.00352044 6.50035 -0.157382 8.13401 0.156123 9.71011C0.469628 11.2862 1.24346 12.7339 2.37976 13.8702C3.51606 15.0065 4.9638 15.7804 6.5399 16.0939C8.11599 16.4074 9.74966 16.2465 11.2343 15.6315C12.719 15.0166 13.9879 13.9752 14.8807 12.639C15.7735 11.3029 16.25 9.73197 16.25 8.125C16.2477 5.97081 15.391 3.90551 13.8677 2.38227C12.3445 0.85903 10.2792 0.00227486 8.125 0ZM2.8125 3.76328C3.68969 4.82518 4.2244 6.12804 4.3461 7.5H1.27891C1.40224 6.12843 1.93676 4.82605 2.8125 3.76328ZM8.75 7.5V1.27891C10.1512 1.40581 11.4792 1.9615 12.5531 2.87031C11.4424 4.17194 10.7753 5.79358 10.6484 7.5H8.75ZM7.5 7.5H5.60157C5.47475 5.79358 4.8076 4.17194 3.69688 2.87031C4.77085 1.9615 6.09884 1.40581 7.5 1.27891V7.5ZM4.3461 8.75C4.2244 10.122 3.68969 11.4248 2.8125 12.4867C1.93676 11.424 1.40224 10.1216 1.27891 8.75H4.3461ZM5.60157 8.75H7.5V14.9711C6.09884 14.8442 4.77085 14.2885 3.69688 13.3797C4.80746 12.078 5.47459 10.4564 5.60157 8.75ZM8.75 8.75H10.6484C10.7754 10.4564 11.4426 12.078 12.5531 13.3797C11.4792 14.2885 10.1512 14.8442 8.75 14.9711V8.75ZM11.9039 8.75H14.9711C14.8478 10.1216 14.3133 11.424 13.4375 12.4867C12.5603 11.4248 12.0256 10.122 11.9039 8.75ZM11.9039 7.5C12.0256 6.12804 12.5603 4.82518 13.4375 3.76328C14.3133 4.82605 14.8478 6.12843 14.9711 7.5H11.9039Z" fill="#7B0046"/>
</svg>
