<svg width="14" height="9" viewBox="0 0 14 9" fill="none" xmlns="http://www.w3.org/2000/svg">
<path d="M13.1253 0.46875V4.21875C13.1253 4.34307 13.0759 4.4623 12.988 4.55021C12.9001 4.63811 12.7808 4.6875 12.6565 4.6875C12.5322 4.6875 12.413 4.63811 12.3251 4.55021C12.2371 4.4623 12.1878 4.34307 12.1878 4.21875V1.6002L7.36315 6.42539C7.31962 6.46897 7.26792 6.50355 7.21101 6.52714C7.15411 6.55073 7.09311 6.56287 7.03151 6.56287C6.96991 6.56287 6.90891 6.55073 6.85201 6.52714C6.7951 6.50355 6.7434 6.46897 6.69987 6.42539L4.68776 4.4127L0.800651 8.30039C0.712695 8.38835 0.5934 8.43776 0.469011 8.43776C0.344621 8.43776 0.225327 8.38835 0.13737 8.30039C0.0494135 8.21243 0 8.09314 0 7.96875C0 7.84436 0.0494135 7.72507 0.13737 7.63711L4.35612 3.41836C4.39965 3.37478 4.45135 3.3402 4.50826 3.31661C4.56516 3.29302 4.62616 3.28088 4.68776 3.28088C4.74936 3.28088 4.81036 3.29302 4.86726 3.31661C4.92417 3.3402 4.97587 3.37478 5.0194 3.41836L7.03151 5.43105L11.5251 0.9375H8.90651C8.78219 0.9375 8.66296 0.888114 8.57505 0.800206C8.48715 0.712299 8.43776 0.59307 8.43776 0.46875C8.43776 0.34443 8.48715 0.225201 8.57505 0.137294C8.66296 0.0493861 8.78219 0 8.90651 0H12.6565C12.7808 0 12.9001 0.0493861 12.988 0.137294C13.0759 0.225201 13.1253 0.34443 13.1253 0.46875Z" fill="#00920B"/>
</svg>
